<svg xmlns="http://www.w3.org/2000/svg" viewBox="0 0 164.35 171.43"><defs><style>.cls-1,.cls-2{fill:none;}.cls-1,.cls-10,.cls-14,.cls-15,.cls-16,.cls-18,.cls-2,.cls-21,.cls-22,.cls-23,.cls-24,.cls-3,.cls-4,.cls-6,.cls-8,.cls-9{stroke:#21b0dc;}.cls-1,.cls-10,.cls-11,.cls-14,.cls-15,.cls-16,.cls-17,.cls-19,.cls-2,.cls-20,.cls-21,.cls-22,.cls-23,.cls-24,.cls-3,.cls-5,.cls-6,.cls-7,.cls-8,.cls-9{stroke-linecap:round;}.cls-1,.cls-13,.cls-16,.cls-18,.cls-2,.cls-20,.cls-21,.cls-22,.cls-23,.cls-24,.cls-3,.cls-4,.cls-9{stroke-miterlimit:10;}.cls-1{stroke-width:3px;}.cls-2{stroke-width:5.3px;}.cls-10,.cls-11,.cls-13,.cls-14,.cls-15,.cls-16,.cls-17,.cls-18,.cls-19,.cls-20,.cls-21,.cls-22,.cls-23,.cls-24,.cls-3,.cls-5,.cls-6,.cls-7,.cls-8,.cls-9{fill:#fff;}.cls-18,.cls-3,.cls-4{stroke-width:2px;}.cls-12,.cls-4{fill:#21b0dc;}.cls-19,.cls-20,.cls-5{stroke:#fff;}.cls-10,.cls-11,.cls-14,.cls-15,.cls-17,.cls-19,.cls-5,.cls-6,.cls-7,.cls-8{stroke-linejoin:round;}.cls-5{stroke-width:1.84px;}.cls-6,.cls-7{stroke-width:0.82px;}.cls-11,.cls-13,.cls-17,.cls-7{stroke:#575757;}.cls-8{stroke-width:0.79px;}.cls-10,.cls-11,.cls-9{stroke-width:0.88px;}.cls-13{stroke-width:1.13px;}.cls-14,.cls-17{stroke-width:0.61px;}.cls-15{stroke-width:0.66px;}.cls-16{stroke-width:0.81px;}.cls-19,.cls-20,.cls-23{stroke-width:0.5px;}.cls-21{stroke-width:3.38px;}.cls-22{stroke-width:0.28px;}.cls-24{stroke-width:1.36px;}</style></defs><g id="Layer_2" data-name="Layer 2"><g id="Layer_1-2" data-name="Layer 1"><path class="cls-1" d="M46.76,43.5a39.87,39.87,0,0,1,70.69,1.09"/><path class="cls-1" d="M26.86,34.4a62.52,62.52,0,0,1,108.29-3.16"/><circle class="cls-2" cx="83.79" cy="69.75" r="6.64"/><line class="cls-1" x1="135.15" y1="31.24" x2="138.97" y2="19.79"/><line class="cls-1" x1="122.84" y1="31.6" x2="135.15" y2="31.24"/><line class="cls-1" x1="46.76" y1="43.5" x2="42.7" y2="31.62"/><line class="cls-1" x1="58.37" y1="43.5" x2="46.76" y2="43.5"/><line class="cls-3" x1="44.62" y1="170.43" x2="119.74" y2="170.43"/><rect class="cls-4" x="1" y="50.79" width="162.35" height="102.62" rx="17.23"/><rect class="cls-5" x="37.22" y="71.7" width="87.77" height="54.4" rx="10.01"/><path class="cls-6" d="M71.62,84h1.46a0,0,0,0,1,0,0v0A15.35,15.35,0,0,1,57.73,99.38H56.27a0,0,0,0,1,0,0v0A15.35,15.35,0,0,1,71.62,84Z" transform="translate(158.32 153.49) rotate(158.62)"/><path class="cls-7" d="M66.69,84h1.46A15.35,15.35,0,0,1,83.5,99.34v0a0,0,0,0,1,0,0H82A15.35,15.35,0,0,1,66.69,84v0A0,0,0,0,1,66.69,84Z" transform="translate(38.59 -21.07) rotate(21.38)"/><path class="cls-8" d="M77.48,95.16l.07.47a6.29,6.29,0,0,1-6.28,6.29H69.14a6.66,6.66,0,0,1-6.65-6.66v-.17a1.39,1.39,0,0,1-1.13-2,1.3,1.3,0,0,1,1.3-.73h0l.32-4a3.09,3.09,0,0,1,3.08-2.84h7.24a3.08,3.08,0,0,1,3,2.62l.66,4.32a1.65,1.65,0,0,1,.32,0,1.35,1.35,0,0,1,1.3.91A1.38,1.38,0,0,1,77.48,95.16Z"/><path class="cls-9" d="M66.26,104.21a3.84,3.84,0,0,0,3.8,2.38,3.62,3.62,0,0,0,3.64-2.38l.06-.3,6.2,2.54a4.79,4.79,0,0,1,3,4.42v10.06a1.71,1.71,0,0,1-1.15,1.62l-10.93,2.54a1.52,1.52,0,0,1-1,0l-11.63-2.56A1.71,1.71,0,0,1,57,120.91V110.46a4.83,4.83,0,0,1,3.38-4.61l5.91-1.94"/><line class="cls-9" x1="61.69" y1="123.68" x2="61.69" y2="114.81"/><line class="cls-9" x1="78.52" y1="123.68" x2="78.52" y2="114.81"/><line class="cls-10" x1="66.32" y1="103.91" x2="66.32" y2="101.43"/><line class="cls-11" x1="73.76" y1="103.91" x2="73.76" y2="101.43"/><path class="cls-12" d="M66,93.75a0,0,0,0,0,.06,0,.64.64,0,0,1,.61-.3c.67,0,.67.3.67.1,0-1.7,0-2,0-2a.67.67,0,0,0-.67-.67h0a.67.67,0,0,0-.67.67Z"/><path class="cls-12" d="M67.54,95.63h4.88a.38.38,0,0,1,.38.38v0A2.82,2.82,0,0,1,70,98.84h0A2.82,2.82,0,0,1,67.16,96v0a.38.38,0,0,1,.38-.38Z"/><path class="cls-9" d="M77,105.4a6.79,6.79,0,0,1-6.84,4.48c-3.4,0-5.92-1.53-7.16-4.48"/><circle class="cls-13" cx="74.7" cy="95.79" r="1.16"/><path class="cls-10" d="M69.7,81.27h.94a9.85,9.85,0,0,1,9.85,9.85v0a0,0,0,0,1,0,0h-.94a9.85,9.85,0,0,1-9.85-9.85v0A0,0,0,0,1,69.7,81.27Z"/><path class="cls-10" d="M68.92,81.27h.94a0,0,0,0,1,0,0v0A9.85,9.85,0,0,1,60,91.15h-.94a0,0,0,0,1,0,0v0A9.85,9.85,0,0,1,68.92,81.27Z" transform="translate(128.92 172.41) rotate(-180)"/><rect class="cls-14" x="57.19" y="117.79" width="18.27" height="5.53" rx="2.76"/><path class="cls-15" d="M77.31,123.55l-4.71-.23,2.33-5h1.32c2.64,0,2,1.25,2,4.3Z"/><path class="cls-16" d="M80,124.86l-1.5-1.18c-1.07-.26-.26-4.23,0-5.29l3.92-12.3a2,2,0,0,1,2.39-1.47h0A2,2,0,0,1,86.33,107l-3.92,16.37A2,2,0,0,1,80,124.86Z"/><path class="cls-17" d="M84.27,101.21l0,0,1.23-5.57a.6.6,0,0,0-.08-.46.62.62,0,0,0-.43-.28c-.31,0-.61.18-.75.67L83,100.83l-.13,1.11.35-3a.92.92,0,0,0-.72-1.12.27.27,0,0,0-.32.21l-.64,2.94a2.29,2.29,0,0,0,.1,1.37c1,2.5.26,3.71,2.56,4.22l1.37.9c.5.11.66-1,.77-1.46l1.17-2.38,0-.1a.58.58,0,0,0,0-.19l-.13-.87.71-2.13a1.52,1.52,0,0,0-.06-.74.68.68,0,0,0-.28-.3.43.43,0,0,0-.66.31l-.79,2.17"/><path class="cls-17" d="M83.93,109.67h0a9.61,9.61,0,0,1-2.43-2.87l.4-1.81a.65.65,0,0,1,.76-.49l3.61.8a.64.64,0,0,1,.49.76l-.4,1.81A6.14,6.14,0,0,1,83.93,109.67Z"/><path class="cls-17" d="M85.35,101.42l1.41-4.91a.54.54,0,0,1,.67-.37h0a.53.53,0,0,1,.37.66l-1.41,4.92"/><path class="cls-17" d="M84.27,101.19l1.23-5.31a.56.56,0,0,1,.66-.44h0a.57.57,0,0,1,.4.69l-1.24,5.3"/><path class="cls-17" d="M84,103.62A1.37,1.37,0,0,0,83,102"/><path class="cls-18" d="M1,136.38H163.35a0,0,0,0,1,0,0v0a17,17,0,0,1-17,17H18a17,17,0,0,1-17-17v0a0,0,0,0,1,0,0Z"/><rect class="cls-18" x="62.94" y="153.41" width="40.55" height="17.02"/><line class="cls-19" x1="13.9" y1="66.19" x2="25.02" y2="66.19"/><line class="cls-19" x1="19.95" y1="66.19" x2="16.62" y2="60.08"/><line class="cls-19" x1="20.43" y1="56.25" x2="16.62" y2="60.08"/><line class="cls-19" x1="20.53" y1="60.94" x2="20.43" y2="56.25"/><line class="cls-19" x1="24.09" y1="58.36" x2="20.53" y2="60.94"/><line class="cls-19" x1="20.43" y1="56.25" x2="24.19" y2="58.28"/><line class="cls-20" x1="130.16" y1="59.02" x2="145.85" y2="59.02"/><line class="cls-20" x1="130.16" y1="62.12" x2="145.85" y2="62.12"/><line class="cls-21" x1="52.31" y1="124.02" x2="113.52" y2="124.02"/><polygon class="cls-22" points="99.89 98.08 97.08 101 94.27 103.9 93.15 100.02 92.04 96.13 95.96 97.11 99.89 98.08"/><circle class="cls-22" cx="91.74" cy="95.72" r="1.48"/><circle class="cls-22" cx="100.37" cy="97.98" r="1.48"/><circle class="cls-22" cx="94.43" cy="104.14" r="1.48"/><polygon class="cls-22" points="108.52 100.34 105.71 103.25 102.9 106.16 101.79 102.27 100.67 98.38 104.6 99.36 108.52 100.34"/><circle class="cls-22" cx="100.37" cy="97.98" r="1.48"/><circle class="cls-22" cx="109.01" cy="100.23" r="1.48"/><circle class="cls-22" cx="103.07" cy="106.39" r="1.48"/><polygon class="cls-22" points="105.94 91.93 103.13 94.84 100.31 97.75 99.2 93.86 98.09 89.97 102.01 90.95 105.94 91.93"/><circle class="cls-22" cx="97.79" cy="89.56" r="1.48"/><circle class="cls-22" cx="106.42" cy="91.82" r="1.48"/><circle class="cls-22" cx="100.48" cy="97.98" r="1.48"/><line class="cls-23" x1="96.9" y1="85.79" x2="106.96" y2="85.79"/><line class="cls-23" x1="96.9" y1="82.73" x2="101.4" y2="82.73"/><circle class="cls-24" cx="83.21" cy="101.15" r="14.2"/><path class="cls-12" d="M89.39,100.05a.77.77,0,0,1,0,1.34l-5,2.86-5,2.86a.78.78,0,0,1-1.17-.67V95a.79.79,0,0,1,1.17-.68l5,2.86Z"/></g></g></svg>