<svg xmlns="http://www.w3.org/2000/svg" viewBox="0 0 163.26 185.81"><defs><style>.cls-1,.cls-8{fill:#21b0dc;}.cls-1,.cls-10,.cls-13,.cls-3,.cls-4,.cls-5,.cls-6,.cls-7,.cls-9{stroke:#21b0dc;}.cls-1,.cls-10,.cls-12,.cls-13,.cls-3,.cls-5,.cls-6{stroke-miterlimit:10;}.cls-1,.cls-10,.cls-13,.cls-4,.cls-6{stroke-width:2px;}.cls-10,.cls-11,.cls-12,.cls-2,.cls-4,.cls-5,.cls-6,.cls-7,.cls-9{fill:#fff;}.cls-13,.cls-3{fill:none;}.cls-11,.cls-12,.cls-13,.cls-3,.cls-4,.cls-5,.cls-6,.cls-7,.cls-9{stroke-linecap:round;}.cls-3{stroke-width:3px;}.cls-11,.cls-4,.cls-7,.cls-9{stroke-linejoin:round;}.cls-5,.cls-7{stroke-width:2.04px;}.cls-9{stroke-width:1.41px;}.cls-11,.cls-12{stroke:#fff;stroke-width:0.5px;}</style></defs><g id="Layer_2" data-name="Layer 2"><g id="Layer_1-2" data-name="Layer 1"><rect class="cls-1" x="1" y="65.98" width="161.26" height="101.93" rx="15.27"/><rect class="cls-2" x="69.91" y="91.48" width="19" height="16"/><path class="cls-3" d="M58,59.51a23.08,23.08,0,0,1,41.08,2.18"/><path class="cls-3" d="M41.29,44.73a43.35,43.35,0,0,1,76.63,6.21"/><path class="cls-3" d="M20.34,33.44A68,68,0,0,1,138.09,37.7"/><circle class="cls-3" cx="79.61" cy="75.85" r="7.23"/><path class="cls-4" d="M79.13,48.1h8.11a0,0,0,0,1,0,0v4.41A35.66,35.66,0,0,1,51.58,88.17H43.47a0,0,0,0,1,0,0V83.75A35.66,35.66,0,0,1,79.13,48.1Z" transform="translate(151.05 107.75) rotate(158.62)"/><path class="cls-4" d="M70.61,48.1h8.11a35.66,35.66,0,0,1,35.66,35.66v4.41a0,0,0,0,1,0,0h-8.11A35.66,35.66,0,0,1,70.61,52.51V48.1A0,0,0,0,1,70.61,48.1Z" transform="translate(31.2 -29.03) rotate(21.38)"/><path class="cls-4" d="M98.69,77.17l.18,1.24A16.35,16.35,0,0,1,82.53,94.76H77A17.33,17.33,0,0,1,59.66,77.43l0-.44a3.61,3.61,0,0,1-2.94-5.23,3.39,3.39,0,0,1,3.4-1.91l.12,0,.84-10.43a8,8,0,0,1,8-7.39H88a8,8,0,0,1,7.94,6.83l1.7,11.25a3.61,3.61,0,0,1,4.23,2.25A3.59,3.59,0,0,1,98.69,77.17Z"/><path class="cls-5" d="M69.49,100.73c1.72,4.08,5.2,6.2,9.9,6.2s7.74-2.12,9.46-6.2L89,100l16.15,6.63a12.42,12.42,0,0,1,7.71,11.5v26.18a4.45,4.45,0,0,1-3,4.21l-29.29,10a4.51,4.51,0,0,1-2.86,0L42.9,149.21c-1.83-.61-3.12-3-3.12-4.91L45.46,117c1.52-6,3.55-10.35,8.79-12l15.4-5"/><line class="cls-6" x1="57.59" y1="151.42" x2="57.59" y2="128.34"/><line class="cls-6" x1="101.4" y1="151.42" x2="101.4" y2="128.34"/><line class="cls-7" x1="70.54" y1="102.48" x2="70.54" y2="94.21"/><line class="cls-7" x1="89.02" y1="99.95" x2="89.02" y2="93.51"/><path class="cls-8" d="M87.92,73.52a.09.09,0,0,1-.16,0,1.68,1.68,0,0,0-1.59-.78c-1.74,0-1.74.78-1.74.25v-5.2a1.74,1.74,0,0,1,1.74-1.75h0a1.75,1.75,0,0,1,1.75,1.75Z"/><path class="cls-8" d="M68.8,73.52a.09.09,0,0,0,.16,0,1.67,1.67,0,0,1,1.58-.78c1.75,0,1.75.78,1.75.25,0-4.41,0-5.2,0-5.2a1.75,1.75,0,0,0-1.75-1.75h0a1.74,1.74,0,0,0-1.74,1.75Z"/><path class="cls-8" d="M72.82,78.4h12.7a1,1,0,0,1,1,1v0a7.35,7.35,0,0,1-7.35,7.35h0a7.35,7.35,0,0,1-7.35-7.35v0a1,1,0,0,1,1-1Z"/><path class="cls-4" d="M78.45,41h5.21a22.89,22.89,0,0,1,22.89,22.89v2.83a0,0,0,0,1,0,0h-5.21A22.89,22.89,0,0,1,78.45,43.84V41A0,0,0,0,1,78.45,41Z"/><path class="cls-4" d="M73.64,41h5.21a0,0,0,0,1,0,0v2.83A22.89,22.89,0,0,1,56,66.72H50.76a0,0,0,0,1,0,0V63.89A22.89,22.89,0,0,1,73.64,41Z" transform="translate(129.6 107.73) rotate(-180)"/><rect class="cls-4" x="39.78" y="136.08" width="53.66" height="14.39" rx="7.19"/><path class="cls-4" d="M98.26,151.09,86,150.5l6-13H95.5c6.87,0,5.18,3.24,5.18,11.19Z"/><path class="cls-6" d="M105.32,154.49l-3.92-3.07c-2.77-.66-.67-11,0-13.76l10.22-32a5.15,5.15,0,0,1,6.21-3.81l.09,0a5.15,5.15,0,0,1,3.81,6.21l-7.26,41.56C113.81,152.37,108.08,155.15,105.32,154.49Z"/><path class="cls-9" d="M116.37,92.94l-.11-.07,3.19-14.51a1.62,1.62,0,0,0-.21-1.19,1.59,1.59,0,0,0-1.11-.71c-.82-.12-1.6.45-1.95,1.74l-3,13.74-.36,2.89.93-7.94A2.45,2.45,0,0,0,111.84,84a.7.7,0,0,0-.82.54l-1.68,7.65a6.2,6.2,0,0,0,.27,3.59c2.53,6.51.67,9.65,6.67,11l3.55,2.35c1.31.28,1.73-2.5,2-3.81l3.05-6.19.09-.28a1.24,1.24,0,0,0,.06-.47s-.35-2.27-.35-2.28l1.86-5.55a3.89,3.89,0,0,0-.16-1.93,1.82,1.82,0,0,0-.72-.78,1.14,1.14,0,0,0-1.72.82l-2,5.63"/><path class="cls-9" d="M115.5,115h0c-.9-.19-6.53-6.59-6.33-7.49l1-4.7a1.68,1.68,0,0,1,2-1.27l9.39,2.07a1.68,1.68,0,0,1,1.28,2l-1,4.7C121.62,111.16,116.4,115.16,115.5,115Z"/><path class="cls-9" d="M119.19,93.46l3.68-12.78a1.41,1.41,0,0,1,1.74-1h0a1.41,1.41,0,0,1,1,1.75L121.9,94.24"/><path class="cls-9" d="M116.38,92.86l3.21-13.81a1.44,1.44,0,0,1,1.71-1.14h0a1.45,1.45,0,0,1,1,1.78L119.12,93.5"/><path class="cls-9" d="M115.61,99.21a3.56,3.56,0,0,0-2.67-4.28"/><path class="cls-10" d="M1,151H162.26a0,0,0,0,1,0,0v0a16.92,16.92,0,0,1-16.92,16.92H17.92A16.92,16.92,0,0,1,1,151v0a0,0,0,0,1,0,0Z"/><line class="cls-6" x1="44.32" y1="184.81" x2="118.94" y2="184.81"/><rect class="cls-10" x="62.52" y="167.91" width="40.27" height="16.91"/><line class="cls-11" x1="13.82" y1="81.27" x2="24.86" y2="81.27"/><line class="cls-11" x1="19.83" y1="81.27" x2="16.51" y2="75.2"/><line class="cls-11" x1="20.3" y1="71.4" x2="16.51" y2="75.2"/><line class="cls-11" x1="20.4" y1="76.06" x2="20.3" y2="71.4"/><line class="cls-11" x1="23.94" y1="73.49" x2="20.4" y2="76.06"/><line class="cls-11" x1="20.3" y1="71.4" x2="24.03" y2="73.42"/><line class="cls-12" x1="129.29" y1="74.15" x2="144.88" y2="74.15"/><line class="cls-12" x1="129.29" y1="77.23" x2="144.88" y2="77.23"/><path class="cls-13" d="M97.4,103.83c-3.25,7.67-9,11.68-17.81,11.68s-15.4-4-18.65-11.68"/></g></g></svg>