<svg xmlns="http://www.w3.org/2000/svg" viewBox="0 0 122.79 163.82"><defs><style>.cls-1,.cls-11,.cls-2,.cls-3,.cls-6,.cls-7,.cls-9{fill:#fff;}.cls-1,.cls-12,.cls-3,.cls-4,.cls-5,.cls-6,.cls-7,.cls-8,.cls-9{stroke:#21b0dc;}.cls-1,.cls-11,.cls-12,.cls-3,.cls-4,.cls-5,.cls-6{stroke-miterlimit:10;}.cls-1{stroke-width:3px;}.cls-11,.cls-12,.cls-3,.cls-4,.cls-5,.cls-6,.cls-7,.cls-8,.cls-9{stroke-linecap:round;}.cls-11,.cls-3,.cls-4,.cls-5,.cls-8,.cls-9{stroke-width:0.5px;}.cls-12,.cls-4,.cls-5,.cls-8{fill:none;}.cls-5{stroke-dasharray:5.07 5.07;}.cls-6{stroke-width:3px;}.cls-7,.cls-8,.cls-9{stroke-linejoin:round;}.cls-12,.cls-7{stroke-width:2px;}.cls-10{fill:#21b0dc;}.cls-11{stroke:#fff;}</style></defs><g id="Layer_2" data-name="Layer 2"><g id="Layer_1-2" data-name="Layer 1"><rect class="cls-1" x="1.5" y="1.5" width="73.25" height="131.34" rx="9.02"/><rect class="cls-2" x="21.39" y="58.07" width="32.66" height="25.16" rx="2.64"/><line class="cls-3" x1="25.36" y1="63.84" x2="45.06" y2="63.84"/><line class="cls-3" x1="25.36" y1="67.99" x2="45.06" y2="67.99"/><line class="cls-3" x1="25.36" y1="72.15" x2="45.06" y2="72.15"/><line class="cls-2" x1="25.8" y1="76.7" x2="45.5" y2="76.7"/><line class="cls-4" x1="25.8" y1="76.7" x2="28.05" y2="76.7"/><line class="cls-5" x1="33.12" y1="76.7" x2="40.72" y2="76.7"/><line class="cls-4" x1="43.25" y1="76.7" x2="45.5" y2="76.7"/><line class="cls-6" x1="27.57" y1="3.98" x2="47.27" y2="3.98"/><path class="cls-7" d="M81.86,93c-2.36-5.13-9-25.56-12.16-26.31-1.69-.4-3.49-.72-5.2.69A5.65,5.65,0,0,0,63,73.84L72.4,97.17l-.44,0L53.5,51.57a5.24,5.24,0,0,0-7.16-2.73,5.32,5.32,0,0,0-2.49,6.79L61.34,98.85,66.2,109,53.86,85.6a8.12,8.12,0,0,0-10.64-4.45,2.34,2.34,0,0,0-1.23,3l9.74,24a20.52,20.52,0,0,0,7.48,9.29c19.11,13,19.91,25.13,38.8,17.49l14.09-.23c4.13-1.67.06-10.06-1.61-14.19L107.21,98,107,97a4.94,4.94,0,0,0-.71-1.39.3.3,0,0,1,0-.08L95.69,71.41c-.54-1.34-2.84-4.45-4.07-5a5.87,5.87,0,0,0-3.42-.77A3.8,3.8,0,0,0,85,71.14l7.84,19.37"/><path class="cls-7" d="M81.86,93,74.34,73.31a5.3,5.3,0,0,1,2.78-6.89,4.82,4.82,0,0,1,4.07,0C84.3,68.06,91.48,87,92.87,90.51"/><path class="cls-8" d="M49.63,60.64,47.36,55A3.14,3.14,0,0,1,49.09,51h0a3.14,3.14,0,0,1,4.08,1.73"/><path class="cls-9" d="M42.8,83.66h0a3.13,3.13,0,0,1,4.08,1.73L49.15,91"/><path class="cls-10" d="M113.92,163.7h0c-2.84,1.12-30.12-6.12-31.23-9l-5.81-14.84A5.53,5.53,0,0,1,80,132.73l29.68-11.62a5.54,5.54,0,0,1,7.17,3.13l5.81,14.84C123.78,141.93,116.77,162.59,113.92,163.7Z"/><line class="cls-9" x1="82.46" y1="140.56" x2="86.22" y2="149.69"/><line class="cls-3" x1="54.09" y1="12.09" x2="66.34" y2="12.09"/><line class="cls-3" x1="54.09" y1="14.51" x2="66.34" y2="14.51"/><line class="cls-11" x1="5.33" y1="59.16" x2="17.92" y2="59.16"/><line class="cls-11" x1="10.81" y1="64.24" x2="17.92" y2="64.24"/><line class="cls-11" x1="14.36" y1="69.35" x2="17.92" y2="69.35"/><line class="cls-12" x1="44.57" y1="43.59" x2="41.42" y2="35.71"/><line class="cls-12" x1="52.57" y1="43.59" x2="57.06" y2="36.11"/><line class="cls-12" x1="39.57" y1="49.59" x2="32.79" y2="49.59"/><line class="cls-9" x1="9.05" y1="16.2" x2="20.09" y2="16.2"/><line class="cls-9" x1="15.06" y1="16.2" x2="11.75" y2="10.13"/><line class="cls-9" x1="15.54" y1="6.32" x2="11.75" y2="10.13"/><line class="cls-9" x1="15.63" y1="10.98" x2="15.54" y2="6.32"/><line class="cls-9" x1="19.18" y1="8.42" x2="15.63" y2="10.98"/><line class="cls-9" x1="15.54" y1="6.32" x2="19.27" y2="8.34"/></g></g></svg>