<svg xmlns="http://www.w3.org/2000/svg" viewBox="0 0 219.29 182.01"><defs><style>.cls-1,.cls-12,.cls-14,.cls-2,.cls-4,.cls-6,.cls-9{fill:#fff;}.cls-10,.cls-11,.cls-13,.cls-14,.cls-15,.cls-2,.cls-3,.cls-4,.cls-6,.cls-7,.cls-8,.cls-9{stroke:#21b0dc;}.cls-10,.cls-11,.cls-12,.cls-13,.cls-14,.cls-15,.cls-2,.cls-3,.cls-4,.cls-6,.cls-7,.cls-8,.cls-9{stroke-linecap:round;}.cls-10,.cls-13,.cls-2,.cls-6,.cls-7,.cls-8{stroke-linejoin:round;}.cls-2,.cls-3,.cls-4,.cls-8{stroke-width:2px;}.cls-3,.cls-8{fill:none;}.cls-11,.cls-12,.cls-14,.cls-15,.cls-3,.cls-4,.cls-9{stroke-miterlimit:10;}.cls-10,.cls-11,.cls-13,.cls-5,.cls-7{fill:#21b0dc;}.cls-6,.cls-7{stroke-width:2.08px;}.cls-12,.cls-13,.cls-9{stroke-width:2.3px;}.cls-10{stroke-width:2.16px;}.cls-11{stroke-width:3.22px;}.cls-12{stroke:#fff;}.cls-14,.cls-15{stroke-width:3px;}.cls-15{fill:#05a182;}</style></defs><g id="Layer_2" data-name="Layer 2"><g id="Layer_1-2" data-name="Layer 1"><rect class="cls-1" x="169.65" y="90.95" width="21" height="17"/><rect class="cls-1" x="99.65" y="106.95" width="21" height="14"/><rect class="cls-1" x="27.65" y="89.95" width="23" height="16"/><path class="cls-2" d="M61.15,72.55l.21,1.39A18.48,18.48,0,0,1,42.88,92.43H36.63A19.58,19.58,0,0,1,17.05,72.84l0-.5a4,4,0,0,1,.29-8.07,2.3,2.3,0,0,1,.37,0l1.62-20.13h37.5l3.08,20.43a3.85,3.85,0,0,1,1-.11,4,4,0,0,1,.24,8.07Z"/><path class="cls-2" d="M50.22,98.29l18.25,7.49a14.06,14.06,0,0,1,8.72,13v29.58a5,5,0,0,1-3.39,4.76L40.71,164.38a5.1,5.1,0,0,1-3.23,0l-33-11.33A5,5,0,0,1,1,148.29V117.56A14.25,14.25,0,0,1,10.93,104l17.41-5.7,11.19,7Z"/><line class="cls-3" x1="14.71" y1="156.45" x2="14.71" y2="130.37"/><line class="cls-4" x1="64.21" y1="156.45" x2="64.21" y2="130.37"/><line class="cls-2" x1="28.34" y1="98.29" x2="28.34" y2="91.01"/><line class="cls-2" x1="50.22" y1="98.29" x2="50.22" y2="91.01"/><path class="cls-5" d="M49,68.42a.09.09,0,0,1-.18,0A1.9,1.9,0,0,0,47,67.59c-2,0-2,.88-2,.28,0-5,0-5.88,0-5.88a2,2,0,0,1,2-2h0a2,2,0,0,1,2,2Z"/><path class="cls-5" d="M27.37,68.42a.09.09,0,0,0,.18,0,1.92,1.92,0,0,1,1.8-.87c2,0,2,.88,2,.28,0-5,0-5.88,0-5.88a2,2,0,0,0-2-2h0a2,2,0,0,0-2,2Z"/><path class="cls-5" d="M31.92,73.94H46.27a1.13,1.13,0,0,1,1.13,1.13v0a8.3,8.3,0,0,1-8.3,8.3h0a8.3,8.3,0,0,1-8.3-8.3v0A1.13,1.13,0,0,1,31.92,73.94Z"/><polygon class="cls-2" points="59.86 145.2 52.45 148.66 45.03 145.2 45.03 130.37 59.86 130.37 59.86 145.2"/><line class="cls-6" x1="45.03" y1="135" x2="59.86" y2="135"/><path class="cls-7" d="M35.67,32.5H49.44a7.42,7.42,0,0,1,7.42,7.42V57.26a0,0,0,0,1,0,0H13.33a0,0,0,0,1,0,0V54.84A22.34,22.34,0,0,1,35.67,32.5Z"/><path class="cls-7" d="M56.86,44.17h0a6,6,0,0,1,6,6V60.54a6,6,0,0,1-6,6h0a0,0,0,0,1,0,0V44.17A0,0,0,0,1,56.86,44.17Z"/><line class="cls-8" x1="39.53" y1="105.3" x2="39.12" y2="164.51"/><line class="cls-2" x1="24.11" y1="99.68" x2="35.1" y2="111.83"/><line class="cls-2" x1="39.53" y1="105.3" x2="35.1" y2="111.83"/><line class="cls-2" x1="43.31" y1="111.68" x2="39.53" y2="105.3"/><line class="cls-2" x1="52.45" y1="100.09" x2="43.31" y2="111.68"/><line class="cls-2" x1="36.15" y1="118.44" x2="36.15" y2="118.64"/><line class="cls-2" x1="36.15" y1="131.87" x2="36.15" y2="132.07"/><line class="cls-2" x1="35.88" y1="146.24" x2="35.88" y2="146.44"/><path class="cls-4" d="M169.28,100.25c1.95,4.62,5.89,7,11.22,7s8.76-2.41,10.71-7l.12-.28,18.25,7.49a14,14,0,0,1,8.71,13V150a5.05,5.05,0,0,1-3.38,4.76l-33.1,11.26a5.07,5.07,0,0,1-3.22,0l-33-11.33a5,5,0,0,1-3.46-4.79V119.24A14.21,14.21,0,0,1,152,105.68L169.45,100"/><path class="cls-7" d="M202,50.74l7.63-2.27s-32.06-36.72-52.51-8.91l1.22,8.91-3.91-2.62L158.7,66l-.33-1.57H202V47.17"/><path class="cls-2" d="M202.25,74.23l.21,1.39A18.48,18.48,0,0,1,184,94.11h-6.26a19.58,19.58,0,0,1-19.57-19.59l0-.49a4.09,4.09,0,0,1-3.33-5.92A3.83,3.83,0,0,1,158.7,66h.15l1-11.78a9.07,9.07,0,0,1,9-8.34h21.32a9.07,9.07,0,0,1,9,7.71l1.92,12.71a3.82,3.82,0,0,1,1-.11,4,4,0,0,1,3.81,2.65A4.06,4.06,0,0,1,202.25,74.23Z"/><line class="cls-9" x1="155.81" y1="158.13" x2="155.81" y2="132.05"/><line class="cls-9" x1="205.31" y1="158.13" x2="205.31" y2="132.05"/><line class="cls-2" x1="169.45" y1="99.97" x2="169.45" y2="92.69"/><line class="cls-2" x1="191.14" y1="99.97" x2="191.14" y2="92.69"/><path class="cls-5" d="M190.08,70.1a.1.1,0,0,1-.18.05,1.87,1.87,0,0,0-1.79-.88c-2,0-2,.88-2,.28V63.67a2,2,0,0,1,2-2h0a2,2,0,0,1,2,2Z"/><path class="cls-5" d="M168.48,70.1a.1.1,0,0,0,.18.05,1.88,1.88,0,0,1,1.79-.88c2,0,2,.88,2,.28V63.67a2,2,0,0,0-2-2h0a2,2,0,0,0-2,2Z"/><path class="cls-5" d="M173,75.62h14.35a1.13,1.13,0,0,1,1.13,1.13v0a8.3,8.3,0,0,1-8.3,8.3h0a8.3,8.3,0,0,1-8.3-8.3v0A1.13,1.13,0,0,1,173,75.62Z"/><path class="cls-10" d="M109.82,55.44H119a0,0,0,0,1,0,0v5a40.29,40.29,0,0,1-40.29,40.29H69.53a0,0,0,0,1,0,0v-5A40.29,40.29,0,0,1,109.82,55.44Z" transform="translate(210.48 116.42) rotate(158.62)"/><path class="cls-10" d="M100.2,55.44h9.16a40.29,40.29,0,0,1,40.29,40.29v5a0,0,0,0,1,0,0h-9.16A40.29,40.29,0,0,1,100.2,60.42v-5A0,0,0,0,1,100.2,55.44Z" transform="translate(37.05 -40.16) rotate(21.38)"/><path class="cls-2" d="M131.92,88.29l.21,1.39a18.48,18.48,0,0,1-18.48,18.49H107.4A19.59,19.59,0,0,1,87.82,88.58l0-.5a4.08,4.08,0,0,1-3.33-5.91A3.82,3.82,0,0,1,88.37,80h.14l.95-11.78a9.08,9.08,0,0,1,9-8.35h21.32a9.08,9.08,0,0,1,9,7.72l1.92,12.71a3.85,3.85,0,0,1,1-.11,4,4,0,0,1,3.81,2.65A4.06,4.06,0,0,1,131.92,88.29Z"/><path class="cls-11" d="M98.92,114.91c2,4.6,5.88,7,11.19,7s8.75-2.41,10.7-7L121,114l18.25,7.49a14.06,14.06,0,0,1,8.72,13V164.1a5,5,0,0,1-3.39,4.76l-33.09,11.26a5.1,5.1,0,0,1-3.23,0l-33-11.33A5,5,0,0,1,71.77,164V133.3a14.23,14.23,0,0,1,9.93-13.56L99.11,114"/><line class="cls-12" x1="85.48" y1="174.19" x2="85.48" y2="148.11"/><line class="cls-12" x1="134.98" y1="174.19" x2="134.98" y2="148.11"/><line class="cls-2" x1="99.76" y1="114.22" x2="99.76" y2="106.94"/><line class="cls-2" x1="120.76" y1="114.03" x2="120.76" y2="106.75"/><path class="cls-5" d="M119.75,84.16a.1.1,0,0,1-.18,0,1.88,1.88,0,0,0-1.79-.88c-2,0-2,.88-2,.28,0-5,0-5.88,0-5.88a2,2,0,0,1,2-2h0a2,2,0,0,1,2,2Z"/><path class="cls-5" d="M98.14,84.16a.1.1,0,0,0,.19,0,1.87,1.87,0,0,1,1.79-.88c2,0,2,.88,2,.28,0-5,0-5.88,0-5.88a2,2,0,0,0-2-2h0a2,2,0,0,0-2,2Z"/><path class="cls-5" d="M102.69,89.68H117a1.13,1.13,0,0,1,1.13,1.13v0a8.3,8.3,0,0,1-8.3,8.3h0a8.3,8.3,0,0,1-8.3-8.3v0a1.13,1.13,0,0,1,1.13-1.13Z"/><path class="cls-13" d="M109.05,47.42h5.88a25.86,25.86,0,0,1,25.86,25.86v3.2a0,0,0,0,1,0,0h-5.88a25.86,25.86,0,0,1-25.86-25.86v-3.2A0,0,0,0,1,109.05,47.42Z"/><path class="cls-13" d="M103.62,47.42h5.88a0,0,0,0,1,0,0v3.2A25.86,25.86,0,0,1,83.64,76.48H77.76a0,0,0,0,1,0,0v-3.2A25.86,25.86,0,0,1,103.62,47.42Z" transform="translate(187.25 123.91) rotate(-180)"/><line class="cls-14" x1="95.82" y1="28.33" x2="108.41" y2="37.49"/><line class="cls-15" x1="134.98" y1="1.5" x2="108.41" y2="37.49"/></g></g></svg>